<svg xmlns="http://www.w3.org/2000/svg" viewBox="0 0 16 11.05"><path d="M2.88.15a2 2 0 00-.71.44 1.71 1.71 0 00-.39.68 3.58 3.58 0 00-.11.9v1.41a2.12 2.12 0 01-.06.54.74.74 0 01-.22.41.92.92 0 01-.39.18 2.7 2.7 0 01-.7.07H0v.83h.26a2.59 2.59 0 01.68.08 1.18 1.18 0 01.43.24.86.86 0 01.23.39 2 2 0 01.07.52v2a2.14 2.14 0 00.56 1.69 2.36 2.36 0 001.7.54h.44v-.84H4a1.21 1.21 0 01-1.37-1.36v-2c0-1-.42-1.55-1.26-1.63a1.43 1.43 0 001.27-1.71V2.17c0-.89.46-1.33 1.38-1.33h.35V0h-.44a3.2 3.2 0 00-1.05.15zM15.74 4.78a2.59 2.59 0 01-.68-.08 1.23 1.23 0 01-.44-.24 1 1 0 01-.23-.39 2.06 2.06 0 01-.06-.54V2.17a2.17 2.17 0 00-.56-1.64 2.37 2.37 0 00-1.71-.54h-.44v.84H12a1.2 1.2 0 011.36 1.36v1.34c0 1 .42 1.55 1.27 1.64-.84.12-1.26.66-1.26 1.63v2.06A1.19 1.19 0 0112 10.22h-.36v.84h.44a3.26 3.26 0 001.06-.15 1.82 1.82 0 00.7-.44 1.71 1.71 0 00.39-.68 3.16 3.16 0 00.12-.9V6.8a2.09 2.09 0 01.06-.53.75.75 0 01.21-.37 1 1 0 01.38-.22 2.83 2.83 0 01.71-.07H16v-.83zM6.23 7.32a.84.84 0 00-.31-.22 1 1 0 00-.39-.08 1 1 0 00-.38.08.87.87 0 00-.32.22 1 1 0 00-.21.31 1.07 1.07 0 00-.07.39.92.92 0 00.07.38.94.94 0 00.53.53 1 1 0 00.38.08 1 1 0 00.39-.08 1 1 0 00.31-.21 1 1 0 00.21-.32.92.92 0 00.08-.38 1.09 1.09 0 00-.08-.39 1 1 0 00-.21-.31zM8.77 7.32a.84.84 0 00-.31-.22 1 1 0 00-.39-.08 1 1 0 00-.39.08.93.93 0 00-.31.22 1 1 0 00-.21.31 1.09 1.09 0 00-.08.39.92.92 0 00.08.38 1 1 0 00.21.32 1.06 1.06 0 00.31.21 1 1 0 00.39.08 1 1 0 00.39-.08 1 1 0 00.31-.21A1 1 0 009 8.4a.92.92 0 00.08-.38A1.09 1.09 0 009 7.63a1 1 0 00-.23-.31zM11.31 7.32A.87.87 0 0011 7.1a1 1 0 00-.38-.08 1 1 0 00-.39.08.84.84 0 00-.31.22 1 1 0 00-.21.31 1.09 1.09 0 00-.08.39.92.92 0 00.08.38 1 1 0 00.21.32 1 1 0 00.31.21 1 1 0 00.39.08 1 1 0 00.91-.61.92.92 0 00.08-.38 1.09 1.09 0 00-.08-.39 1 1 0 00-.22-.31z"/></svg>