<svg xmlns="http://www.w3.org/2000/svg" viewBox="0 0 32 32"><path d="M30.13 11.01c-.24-.68-.52-1.34-.85-1.97C26.77 4.26 21.77 1 16 1c-.57 0-1.13.04-1.69.1-.71.08-1.39.22-2.07.39-3.58.93-6.64 3.13-8.66 6.1-.52.77-.97 1.6-1.35 2.46C1.44 11.88 1 13.89 1 16c0 1.74.31 3.4.86 4.96.23.67.51 1.32.83 1.94C5.19 27.71 10.21 31 16 31c.24 0 .48-.02.72-.04.74-.04 1.46-.11 2.16-.25 2.1-.41 4.04-1.26 5.73-2.45.82-.58 1.58-1.23 2.26-1.96a14.849 14.849 0 003.26-15.29zM16 3c4.72 0 8.84 2.52 11.12 6.28-3.21.63-6.04 2.28-8.16 4.59-.5-.42-1.02-.83-1.56-1.23-.59-.44-1.2-.84-1.81-1.22.26-1.1.41-2.24.41-3.42 0-1.74-.31-3.4-.86-4.96.29-.02.57-.04.86-.04zm-2.88.33C13.68 4.78 14 6.35 14 8c0 .82-.08 1.61-.23 2.39-2.61-1.37-5.29-2.23-7.85-2.59 1.8-2.21 4.32-3.82 7.2-4.47zM3 16c0-2.19.55-4.25 1.5-6.06 2.78.08 5.81.9 8.72 2.45-1.48 4.14-5 7.3-9.35 8.28C3.32 19.22 3 17.65 3 16zm1.76 6.51a15.01 15.01 0 0010.22-9.09 21.87 21.87 0 012.72 2.02C16 17.87 15 20.82 15 24c0 1.75.32 3.43.87 4.99-4.75-.04-8.88-2.64-11.11-6.48zm13.18 6.33a12.967 12.967 0 011.22-12.01c2.74 2.8 4.53 6.03 5.17 9.14-1.78 1.5-3.98 2.51-6.39 2.87zm8.29-4.83c-1.09-3.05-3.06-6.11-5.8-8.79 1.96-2.14 4.62-3.61 7.63-4.06a12.957 12.957 0 01-1.83 12.85z"/></svg>