<svg xmlns="http://www.w3.org/2000/svg" viewBox="0 0 32 32"><path d="M24.48 12.59a2.5 2.5 0 00-5 0 2.5 2.5 0 005 0zm-3.5 0c0-.55.45-1 1-1s1 .45 1 1-.45 1-1 1-1-.45-1-1zM6.92 12.59a2.5 2.5 0 005 0 2.5 2.5 0 00-5 0zm3.5 0c0 .55-.45 1-1 1s-1-.45-1-1 .45-1 1-1 1 .45 1 1z"/><path d="M28.59 15.13c0-2.76-.31-6.65-2.92-8.77-.09-.33-.21-1.02-.29-1.44-.35-1.94-.49-2.57-1.11-2.92-1.14-.67-1.84.46-2.67 1.78-.12.19-.29.46-.45.7-3.34-1.3-7.42-1.41-10.86-.31-.16-.24-.34-.54-.49-.77C8.94 2 8.32.99 7.2 1.53c-.71.34-.9 1.2-1.26 2.91-.07.35-.22 1.08-.33 1.42C2.63 7.95 2 12.04 2 15.13c0 4.22 3.13 7.54 8.26 8.84-.91.81-1.41 1.83-1.41 2.89V30h2.28v-3.14c0-.55.41-1.11 1.16-1.56l.55-.6v-2.57l-.48-.08c-4.98-.77-8.08-3.43-8.08-6.93 0-2.61.49-6.04 2.81-7.51.58-.37.74-1.06 1.06-2.57.72 1.16 1.29 1.86 2.25 1.51 3.32-1.25 7.36-1.14 10.55.31.92.42 1.54-.25 2.24-1.3.29 1.58.42 2.11.91 2.47 1.99 1.46 2.22 4.75 2.22 7.11 0 3.6-3.22 6.28-8.4 6.99l-.49.07v2.56l.33.39.22.18c.75.45 1.16 1 1.16 1.56V30h2.28v-3.14c0-1.04-.48-2.03-1.34-2.83 5.28-1.26 8.51-4.6 8.51-8.9z"/></svg>