<svg xmlns="http://www.w3.org/2000/svg" viewBox="0 0 32 32"><path d="M0 0v32h32V0H0zm31 31H1V1h30v30z"/><path d="M4.74 31.68V13.15h2.33v2.23a5.32 5.32 0 012.01-1.93c.84-.46 1.77-.69 2.79-.69 1.18 0 2.24.28 3.16.85s1.65 1.34 2.19 2.32c.54.98.8 2.1.8 3.35 0 1.24-.27 2.35-.8 3.34-.53.99-1.26 1.77-2.18 2.33-.92.57-1.96.85-3.13.85-1.01 0-1.94-.24-2.78-.71a5.508 5.508 0 01-2.06-1.98v8.54H4.74zm6.56-7.86c.83 0 1.57-.19 2.22-.58.65-.39 1.16-.92 1.52-1.6.37-.68.55-1.46.55-2.33 0-.88-.19-1.66-.56-2.35s-.88-1.22-1.52-1.61-1.38-.58-2.21-.58-1.57.19-2.23.58-1.16.92-1.54 1.6c-.37.68-.56 1.46-.56 2.34 0 .88.19 1.66.56 2.34.37.68.88 1.21 1.54 1.6s1.4.59 2.23.59zm11.5 2.01c-1.02 0-1.93-.22-2.72-.67s-1.41-1.08-1.88-1.9l1.12-1.44c.42.71.94 1.26 1.54 1.66s1.24.59 1.93.59c.45 0 .85-.09 1.22-.26.36-.18.65-.43.87-.76.22-.33.32-.73.32-1.18 0-.44-.11-.79-.33-1.04-.22-.25-.54-.47-.97-.67s-.96-.41-1.6-.66c-.51-.21-1.01-.44-1.49-.71-.48-.26-.87-.6-1.18-1-.31-.4-.46-.92-.46-1.54 0-.67.18-1.27.55-1.79.36-.52.87-.93 1.51-1.22.64-.3 1.37-.44 2.18-.44.66 0 1.31.13 1.93.4.62.26 1.22.64 1.78 1.14l-.94 1.42c-.83-.88-1.75-1.32-2.76-1.32-.61 0-1.1.15-1.48.46s-.56.71-.56 1.19c0 .38.14.69.41.94.27.25.62.47 1.04.65.42.18.86.36 1.32.54.69.26 1.29.52 1.81.79s.92.62 1.21 1.05c.29.43.43 1 .43 1.72 0 .84-.2 1.56-.59 2.17-.4.61-.95 1.07-1.67 1.4s-1.58.48-2.54.48z"/></svg>