<svg xmlns="http://www.w3.org/2000/svg" viewBox="0 0 32 32"><path d="M0 0v32h32V0H0zm31 31H1V1h30v30z"/><path d="M4 26h15v2H4zM3.78 4.01h3.58c2.3 0 4.15.82 4.15 3.36 0 2.45-1.87 3.54-4.08 3.54H6.14v3.54H3.78V4.01zm3.51 5.02c1.3 0 1.91-.58 1.91-1.66 0-1.09-.7-1.48-1.97-1.48H6.14v3.15h1.15zm5.2 4.1l1.35-1.62c.74.65 1.7 1.09 2.56 1.09.98 0 1.47-.39 1.47-1.01 0-.66-.59-.87-1.5-1.24l-1.36-.58c-1.08-.44-2.11-1.33-2.11-2.84 0-1.73 1.54-3.11 3.72-3.11 1.2 0 2.46.47 3.35 1.37l-1.19 1.49c-.69-.53-1.34-.82-2.16-.82-.81 0-1.33.34-1.33.94 0 .64.68.87 1.59 1.23l1.33.54c1.27.52 2.07 1.36 2.07 2.84 0 1.73-1.44 3.23-3.93 3.23-1.36-.01-2.8-.52-3.86-1.51z"/></svg>