<svg xmlns="http://www.w3.org/2000/svg" viewBox="0 0 32 32"><path d="M24.08 1l-1.82.7 4.25 10.99c.59-.28 1.19-.52 1.82-.71L24.08 1zm-3.57 17.7l-11-4.22-.7 1.83 10.99 4.22c.19-.63.43-1.24.71-1.83zm3.79-4.66l-7.83-8.81-1.46 1.3 7.82 8.81c.46-.47.95-.9 1.47-1.3zm-5.03 10.12c0-.33.02-.65.05-.98H7.54v1.96h11.78c-.03-.33-.05-.65-.05-.98zm.43-3.25L8.11 18.79l-.35 1.92 11.58 2.12c.07-.66.2-1.29.36-1.92zm2.25-4.55l-9.83-6.49-1.08 1.63 9.82 6.49c.33-.58.69-1.12 1.09-1.63z"/><path d="M23.18 29.04H3.62v-9.77H1.67V31h23.47V19.27h-1.96z"/></svg>