<svg xmlns="http://www.w3.org/2000/svg" viewBox="0 0 32 24.59"><g><path d="M15.17 14.64c-.58 0-1.03.12-1.36.37-.33.25-.49.62-.49 1.13 0 .26.04.48.12.68.08.19.19.35.34.48.14.13.31.22.51.28.2.06.4.09.63.09.29 0 .56-.04.81-.13s.47-.19.67-.3c.2-.12.36-.23.5-.35.14-.12.24-.21.3-.27v-1.67c-.25-.07-.55-.14-.89-.2-.35-.07-.73-.11-1.14-.11z"/><path d="M0 0v24.59h32V0H0zm18.56 18.61h-1.14l-.15-.92h-.04c-.11.14-.25.28-.42.42-.17.14-.37.26-.59.37-.22.11-.47.2-.73.26s-.55.1-.84.1c-.4 0-.78-.06-1.11-.18-.34-.12-.63-.3-.87-.53-.24-.23-.43-.51-.57-.85-.13-.33-.2-.71-.2-1.13 0-.42.07-.79.22-1.12s.36-.61.63-.84c.27-.23.59-.4.97-.53.38-.12.8-.18 1.25-.18.43.01.84.04 1.21.11s.7.16.99.26h.04v-.58c0-.23-.01-.43-.04-.61s-.08-.33-.15-.47c-.15-.28-.4-.51-.73-.7-.33-.18-.79-.28-1.35-.28-.42 0-.82.04-1.19.12-.37.08-.74.19-1.11.33v-1.14c.14-.07.31-.14.5-.2s.39-.11.6-.16c.21-.04.43-.08.67-.1s.47-.04.7-.04c.84 0 1.53.15 2.07.45.54.3.92.69 1.16 1.19.09.19.15.39.19.62.04.23.06.47.06.74v5.59zM26.5 6.62h-1.79v12.76h1.79v.93H22v-.93h1.79V6.62H22v-.93h4.5v.93z"/></g></svg>