<svg xmlns="http://www.w3.org/2000/svg" viewBox="0 0 9.54 16"><path d="M8.39 1A4.79 4.79 0 005.2 0a6.89 6.89 0 00-2.67.47 8.89 8.89 0 00-1.76.97l.68 1a8.16 8.16 0 011.4-.81A5 5 0 015.1 1.2a3.65 3.65 0 011.84.39 2.38 2.38 0 01.95 1A3.08 3.08 0 018.18 4v2a7.54 7.54 0 00-1.41-.72 6.56 6.56 0 00-2.22-.34A5.05 5.05 0 001.21 6 3.41 3.41 0 000 8.73a3.57 3.57 0 00.59 2.11 3.75 3.75 0 001.51 1.28 4.54 4.54 0 002 .43 5.33 5.33 0 002.42-.61A3.62 3.62 0 008.18 10v2.25h1.36V3.77A3.44 3.44 0 008.39 1zm-.21 6.29a4.46 4.46 0 01-.52 2.25 3.56 3.56 0 01-1.37 1.36 3.74 3.74 0 01-1.87.47 3.5 3.5 0 01-2.13-.66 2.37 2.37 0 01-.91-2 2.29 2.29 0 01.92-2A4.14 4.14 0 014.77 6a7.67 7.67 0 011.81.21 6.6 6.6 0 011.64.65zM.21 14.76h4.36V16H.21zM5.81 14.76h1.24V16H5.81zM8.3 14.76h1.24V16H8.3z"/></svg>