<svg xmlns="http://www.w3.org/2000/svg" viewBox="0 0 36 36"><path d="M34.67 4.67c-1.57 2.19-3.62 4-5.98 5.3-.01-.02-.03-.04-.04-.07 2.69-2.22 4.76-5.16 5.81-8.57a18.106 18.106 0 01-8.2 6.36c-.89-.47-1.9-.76-2.98-.76A6.43 6.43 0 0017 11.96c-.1.46-.17.93-.17 1.42 0 .22.03.44.06.66.12 1.18.56 2.27 1.23 3.18-.24.01-.48.03-.73.03-.88 0-1.74-.1-2.59-.22-.14-.02-.27-.07-.41-.09-3.53-.6-6.69-2.2-9.21-4.53l-.01-.01-.03.15c0 .01 0 .02-.01.04-.12.46-.21.94-.3 1.42-.01.12-.04.24-.04.37 0 2.4 1.65 4.4 3.87 4.98-.41.11-.84.18-1.29.18-.97 0-1.88-.29-2.65-.76l-.03.32c-.01.1-.03.2-.03.31l.04.44c.14 1.6.99 2.98 2.25 3.83.48.32 1.01.56 1.58.71-.28.07-.59.1-.88.13l-1.45-.07c.24 1.27.94 2.36 1.92 3.12.87.68 1.96 1.09 3.14 1.09.13 0 .24-.03.37-.04l.04.04c-1.48 1.51-5.75 4-10.76 4.8 2.35 1.12 8.56 1.85 11.33 1.85 1.79 0 3.52-.27 5.16-.76 3.95-1.18 7.3-3.69 9.61-6.98 1.58-2.26 2.67-4.88 3.08-7.74.12-.85.21-1.7.21-2.58 0-1.63-.24-3.2-.65-4.7 2.3-2.13 4.07-4.81 5.02-7.88zM22.72 12.5a1.53 1.53 0 111.53-1.53c.01.85-.68 1.53-1.53 1.53z"/></svg>