<svg xmlns="http://www.w3.org/2000/svg" viewBox="0 0 32 32"><path d="M0 0v32h32V0H0zm31 31H1V1h30v30z"/><path d="M10.95 25.83c-1.14 0-2.18-.28-3.1-.85a6.139 6.139 0 01-2.2-2.32c-.54-.98-.81-2.11-.81-3.37 0-1.25.26-2.36.79-3.34s1.25-1.75 2.17-2.32 1.97-.85 3.14-.85c1.04 0 1.99.23 2.85.7.86.46 1.53 1.11 2 1.93v-2.24h2.33v12.29h-2.33v-2.3c-.54.85-1.22 1.51-2.06 1.98-.84.45-1.77.69-2.78.69zm.62-2.01c.84 0 1.58-.19 2.23-.58s1.15-.92 1.52-1.6c.37-.68.55-1.46.55-2.34 0-.88-.18-1.66-.55-2.34s-.87-1.21-1.52-1.6-1.39-.58-2.23-.58c-.83 0-1.57.19-2.22.58-.65.39-1.16.92-1.53 1.6s-.56 1.46-.56 2.34c0 .87.19 1.65.56 2.33.37.68.88 1.22 1.53 1.61.65.39 1.39.58 2.22.58zM21.79 10.67c-.26 0-.51-.07-.73-.2-.22-.13-.4-.31-.53-.53-.13-.22-.2-.47-.2-.73 0-.27.07-.52.2-.73.13-.22.31-.39.53-.52.22-.13.46-.2.73-.2.27 0 .52.07.73.2.22.13.39.31.52.52a1.44 1.44 0 010 1.46c-.13.22-.31.4-.52.53-.21.13-.45.2-.73.2zm-1.16 14.77V13.15h2.33v12.29h-2.33z"/></svg>