<svg xmlns="http://www.w3.org/2000/svg" viewBox="0 0 356 280"><path d="M109.7 158.23c9.84 0 17.99-8.4 17.99-18.6v-8.14c0-10.21-8.15-18.73-17.99-18.73-9.84 0-17.99 8.53-17.99 18.73v8.14c0 10.2 8.15 18.6 17.99 18.6z"/><path d="M356.46 113.01V.23H0V280h356.46v-98.41c-.01-.3-.04-.59-.04-.89v-4.65c0-.3.03-.59.04-.89v-14.89L330.01 198c-2.25 3.16-6.09 2.14-7.66-.29-.88.97-2.12 1.58-3.48 1.58h-47.11c-2.59 0-4.79-2.2-4.79-4.91 0-2.58 2.2-4.91 4.79-4.91h18.9v-76.74h-18.9c-2.59 0-4.79-2.2-4.79-4.91 0-2.58 2.2-4.78 4.79-4.78h23.55c2.59 0 4.66 2.2 4.66 4.78v81.65h18.9c1.77 0 3.33 1.09 4.16 2.6l33.42-47.62v-7.91c-3.14 5.44-8.9 9.13-15.58 9.13-9.97 0-18.12-8.4-18.12-18.6v-4.52c0-10.33 8.15-18.73 18.12-18.73 6.7.02 12.45 3.71 15.59 9.19zM233.45 178.9c5.31 0 9.84 4.65 9.84 10.21 0 5.56-4.53 10.21-9.84 10.21s-9.84-4.65-9.84-10.21c0-5.56 4.53-10.21 9.84-10.21zm-89.31-47.41c0-15.63 12.3-28.42 27.44-28.42s27.44 12.79 27.44 28.42v39.79c0 15.63-12.29 28.42-27.44 28.42-11.78 0-21.61-7.49-25.76-18.6-.26-.65-.26-1.16-.26-1.81 0-2.58 2.07-4.78 4.66-4.78 4.01 0 4.53 4.13 6.21 6.85 3.11 5.17 9.19 8.53 15.14 8.53 9.97 0 17.99-8.4 17.99-18.6v-10.21c-4.92 4.39-11.26 6.98-17.99 6.98-15.14 0-27.44-12.79-27.44-28.42v-8.15zm-61.88 0c0-15.63 12.3-28.42 27.44-28.42s27.44 12.79 27.44 28.42v39.79c0 15.63-12.3 28.42-27.44 28.42-11.78 0-21.61-7.49-25.76-18.6-.26-.65-.26-1.16-.26-1.81 0-2.58 2.07-4.78 4.66-4.78 4.01 0 4.53 4.13 6.21 6.85 3.11 5.17 9.19 8.53 15.14 8.53 9.97 0 17.99-8.4 17.99-18.6v-10.21c-4.92 4.39-11.26 6.98-17.99 6.98-15.14 0-27.44-12.79-27.44-28.42v-8.15zm179.76 125.7H79.21v-24.33h182.8v24.33z"/><path d="M332.87 122.57v4.52c0 4.65 3.75 8.4 8.02 8.4 4.4 0 8.15-3.75 8.15-8.4v-4.52c0-4.65-3.75-8.4-8.15-8.4-4.27 0-8.02 3.75-8.02 8.4zm-161.3 35.66c9.84 0 17.99-8.4 17.99-18.6v-8.14c0-10.21-8.15-18.73-17.99-18.73-9.84 0-17.99 8.53-17.99 18.73v8.14c.01 10.2 8.16 18.6 17.99 18.6z"/></svg>