<svg xmlns="http://www.w3.org/2000/svg" viewBox="0 0 356 280"><path d="M233.07 82.97c-36.65 0-66.36 29.71-66.36 66.36s29.71 66.36 66.36 66.36 66.36-29.71 66.36-66.36-29.71-66.36-66.36-66.36zm17.5 45.25c6.66 0 12.07 5.4 12.07 12.07 0 6.66-5.4 12.07-12.07 12.07-6.66 0-12.07-5.4-12.07-12.07s5.4-12.07 12.07-12.07zm-38.62 0c6.66 0 12.07 5.4 12.07 12.07 0 6.66-5.4 12.07-12.07 12.07s-12.07-5.4-12.07-12.07c.01-6.67 5.41-12.07 12.07-12.07zm21.12 73c-20.42 0-38.08-11.8-46.55-28.96h93.1c-8.47 17.16-26.13 28.96-46.55 28.96z"/><path d="M-.21.01v279.77H356V.01H-.21zm233.28 237.41c-48.65 0-88.08-39.44-88.08-88.08s39.44-88.08 88.08-88.08 88.08 39.44 88.08 88.08-39.43 88.08-88.08 88.08z"/></svg>